<svg width="32" height="32" viewBox="0 0 32 32" fill="none" xmlns="http://www.w3.org/2000/svg">
<rect width="32" height="32" rx="7" fill="#F5F5F5"/>
<rect x="10" y="25" width="14" height="2" fill="#FF3946"/>
<mask id="mask0" mask-type="alpha" maskUnits="userSpaceOnUse" x="10" y="5" width="14" height="18">
<path d="M10.5234 23V5.9375H15.7734C17.2734 5.9375 18.6133 6.27734 19.793 6.95703C20.9805 7.62891 21.9062 8.58984 22.5703 9.83984C23.2344 11.082 23.5664 12.4961 23.5664 14.082V14.8672C23.5664 16.4531 23.2383 17.8633 22.582 19.0977C21.9336 20.332 21.0156 21.2891 19.8281 21.9688C18.6406 22.6484 17.3008 22.9922 15.8086 23H10.5234ZM14.0391 8.78516V20.1758H15.7383C17.1133 20.1758 18.1641 19.7266 18.8906 18.8281C19.6172 17.9297 19.9883 16.6445 20.0039 14.9727V14.0703C20.0039 12.3359 19.6445 11.0234 18.9258 10.1328C18.207 9.23438 17.1562 8.78516 15.7734 8.78516H14.0391Z" fill="white"/>
</mask>
<g mask="url(#mask0)">
<rect x="0.277222" y="12.175" width="25.2267" height="21.4585" transform="rotate(-31.2873 0.277222 12.175)" fill="url(#paint0_linear)"/>
</g>
<defs>
<linearGradient id="paint0_linear" x1="26.2206" y1="12.1751" x2="-10.8471" y2="7.24407" gradientUnits="userSpaceOnUse">
<stop stop-color="#314584"/>
<stop offset="1" stop-color="#C3D0D8"/>
</linearGradient>
</defs>
</svg>
